<svg width="44" height="44" viewBox="0 0 44 44" fill="none" xmlns="http://www.w3.org/2000/svg">
<path d="M22 43.875C9.91992 43.875 0.125 34.0801 0.125 22C0.125 9.91992 9.91992 0.125 22 0.125C34.0801 0.125 43.875 9.91992 43.875 22C43.875 34.0801 34.0801 43.875 22 43.875ZM18.0938 14.5781C18.0938 14.3633 17.918 14.1875 17.7031 14.1875H15.3594C15.1445 14.1875 14.9688 14.3633 14.9688 14.5781V29.4219C14.9688 29.6367 15.1445 29.8125 15.3594 29.8125H17.7031C17.918 29.8125 18.0938 29.6367 18.0938 29.4219V14.5781ZM29.0312 14.5781C29.0312 14.3633 28.8555 14.1875 28.6406 14.1875H26.2969C26.082 14.1875 25.9062 14.3633 25.9062 14.5781V29.4219C25.9062 29.6367 26.082 29.8125 26.2969 29.8125H28.6406C28.8555 29.8125 29.0312 29.6367 29.0312 29.4219V14.5781Z" fill="#b3b3b3"/>
</svg>
